<svg width="70" height="43" viewBox="0 0 70 43" fill="none" xmlns="http://www.w3.org/2000/svg">
<path fill-rule="evenodd" clip-rule="evenodd" d="M36.6001 39.5997C41.6637 35.3078 44.8738 28.9259 44.8738 21.8C44.8738 14.6741 41.6637 8.29218 36.6001 4.00027C39.856 1.97254 43.7078 0.799988 47.8357 0.799988C59.5243 0.799988 68.9999 10.202 68.9999 21.8C68.9999 33.398 59.5243 42.8 47.8357 42.8C43.7078 42.8 39.856 41.6274 36.6001 39.5997Z" fill="white"/>
<path fill-rule="evenodd" clip-rule="evenodd" d="M32.9996 4.02242C29.7397 1.98108 25.8791 0.799988 21.7408 0.799988C10.0648 0.799988 0.599609 10.202 0.599609 21.8C0.599609 33.398 10.0648 42.8 21.7408 42.8C25.8791 42.8 29.7397 41.6189 32.9996 39.5776C27.9566 35.2859 24.761 28.9136 24.761 21.8C24.761 14.6864 27.9566 8.31412 32.9996 4.02242Z" fill="white"/>
<path fill-rule="evenodd" clip-rule="evenodd" d="M34.8 38.0004C39.5579 34.1819 42.6 28.3433 42.6 21.8C42.6 15.2567 39.5579 9.41807 34.8 5.5996C30.0421 9.41807 27 15.2567 27 21.8C27 28.3433 30.0421 34.1819 34.8 38.0004Z" fill="white"/>
</svg>
